<svg xmlns="http://www.w3.org/2000/svg" viewBox="0 0 453.543 453.543"><defs><style>.a{fill:#1d1d1b;}.b{fill:#fff482;}.c{fill:#fff;}.d{fill:#004369;}</style></defs><title>Blottartuban</title><path class="a" d="M441.412,302.359c-6.224-22.756-6.072-31.562-4.533-46.78,1.061-10.5,3.1-15.834,2.3-28.172a175.108,175.108,0,0,0-3.144-21.98c-5.717-29.248-.862-19.258-6.147-55.667-.267-1.845-.063-4.312,1.448-5.792,2.065-2.02,1.309-.621,4.968-3.81,3.244-2.826,3.607-6.208-.825-8.522-1.521-.795-3.2-.632-1.58-3.99,1.755-3.638-.259-8.483-4.36-10a5.651,5.651,0,0,1-3.845-3.4c-1.9-4.085-4.885-3.568-7.159-1.315-3.095,3.063-3.8,4.889-15.253.723s-52.954-9.939-65.588-10.724-19.659-5.881-23.4-10.794-.49-2.464-9.152-8.908c-7.38-5.492-8.325-2.962-4.216-12.4C311.3,47,327.6,37.6,345.4,32.11c7.031-2.169,17.08-12.956-6.206-19.994C299.437.1,246.979,2.46,209.184,7.565c-20.969,2.832-37.424,6.506-44.742,9.049-12.578,4.374-11.385,13.411-11.1,16.4s5.062,4.282,6.611,2.122,2.38-1.361,6.486-1.758C182.635,31.806,199.974,61.9,205.474,73.3c2.391,4.954,1.7,4.608-5.29,5.033s-34.68,2.469-42.67,2.879c-5.5.281-9.42-2.6-7.152,3.958,2.973,8.6,4,8.657,4.409,14.392.369,5.113,1.353,4.892-3.949,5.908-7.623,1.46-3.128.585-26.16,4.8-4.193.767-8.37,1.39-12.484,1.892-33.265,4.055-63.091.323-70.586,1.385-7.442,1.053-10.161,4-14.833,2.442s-5.017,1.365-5.8,3.7,1.461,2.119-2.472,3-5.132,2.758-4.378,7.959,2.953,4.549.63,5.214c-3.635,1.041-3.378,10.739-.853,14.525,2.2,3.3-.9,2.347-1.838,3.067-2.081,1.6-2.168,5.483,1.482,7.516,2.578,1.434.692-.633,1.576,3.3s3.446,19.569,4.6,29.946c.5,4.473.162,3.627-1.3,4.711-2.84,2.1-1.959,3.769-.178,5.292,1.457,1.245,1.2,2.331,1.4,4.134q1.111,9.805,1.96,19.06c4.755,51.515,3.94,89.328,4.242,99.393.338,11.269,8.582,8.209,11.367,8.443S93,343.4,106.949,344.81s19.457-1.381,22.227,3.875c1.775,3.369.436,2.238,3.34,5.957,2.008,2.566-.859,4.1-3.652,6.381-28.6,23.346-30.182,59.191-13.272,69.1,3.861,2.263,5.108.887,1.6,4.868-4.674,5.307-11.631,4.393-18.823,5.342s-3.838,4.088,1.173,6.918c6.643,3.753,10.584,4.25,17.627-.829,2.451-1.766,3.68-3.5,10.724-4.681,7.153-1.2,16.036-5.572,7.35-12.265-16.872-13-6.7-30.245-6.7-30.245a100.865,100.865,0,0,1,9.974-15.174c12.064-14.558,19-7.555,26.033-4.64,28.949,11.985,55.539,12,81.064,4.209q4.628-1.414,9.207-3.161c11.458-4.359,12.618-9.761,15.8-2.786,13.094,28.871,5.434,44.432,3.5,49.141-1.83,4.465-6.421,10.22,3.4,9.781,7.253-.326,5.919-.311,16.111,4.9,15.063,7.708,12.988,7.765,21.2-.294,4.185-4.111,4.5-6.654-2.506-5.787-2.048.254-7.748,1.693-10.625-1.419a22.3,22.3,0,0,0-6.721-4.559c-7.578-3.337-1.586-9.893,2.266-16.8s7.379-13.273,4.428-28.184a34.522,34.522,0,0,0-8.033-16.8c-3.832-4.228-9.4-6.249-5.8-10.616,3.023-3.671,6.356-6.6,8.09-13.718,1.348-5.531,9.306-5.048,16.96-6.416,16.851-3.015,53.137-8.916,61.4-11.726,17.687-6.012,47.133-6.073,60.105-9.59C443.347,313.172,444.439,313.425,441.412,302.359Z"/><path class="b" d="M144.719,374.306c-14.262,11.251-10.9,9.344-18.275,21.361s-2.227,28.85,3.007,33.617,9.327,8.138.715,9.976-8.581,1.271-13.224,4.8c-3.977,3.023-5.5,4.176-9.7,3.577-5.987-.851-11.64-4.774-2.858-4.872s8.388-1.565,13.027-5.531,9.961-3.477,1.242-7.907c-14.069-7.15-16.891-35.89,6.858-61.447,10.046-10.81,8.579-7.361,15.675-1.519C146.645,370.855,147.986,371.73,144.719,374.306Z"/><path class="b" d="M289.091,368.607c14.033,15.216,11.685,30.05,4.139,45.31-6.195,12.531-6.881,13.227,1.487,17.942,6.351,3.577,4.745,2.3,7.474,4.55s2.457,2.022,5.94,1.684,6.044.168,3.075,3.219-4.888,3.99-9.086,2.136-6.334-3.154-13.165-6.259-6.238-2.158-10.267-2.272-5.346-.738-3.067-5.73,10.141-22.852-.327-47.44c-3.9-9.166-6.168-7.941-1.157-11.943C281.292,364.091,281.092,359.931,289.091,368.607Z"/><path class="b" d="M435.19,295.177c-1.028-5.428-6.151-22.01-2.693-38.17s2.718-34.169-.232-54.23q-.325-2.224-.64-4.576c-2.531-18.864-4.36-42.227-4.716-46.751-.012-.153-.023-.286-.031-.393-.287-3.614.357-4.745-2.469-6.041-1.524-.7-3.068-2.015-3.042-3.535.045-2.768-1.111-2.405-3.107-2.9-1.306-.326-4.8-1.42-4.9-5.175-.044-1.754.341-3.251-.849-4.879a5.518,5.518,0,0,0-5.838-2.575c-3.382.586-4.235,1.639-9.183,3.088-5.129,1.5-24.649,7.411-44.4,13.594s-21.394-16.011-23.755-24.824c-2.266-8.466-5.86-3.451-9.648-1.074s-8.146,4.053-7.65-3.78c.227-3.573.49-5.322-3.516-5.185s-7.866,1.766-11.5,3.124-2.264-.032-3.355,6.854c-1.29,8.145-.993,23.455-.992,31.241,0,.949-.008,1.768-.026,2.462-.12,4.729-.65,3.881-1.627,0-.062-.242-.127-.5-.193-.775-1.253-5.153-.979,2.856-1.911-9.359-.615-8.056.252-23.352,1.411-36.618.6-6.873,1.276-13.195,1.866-17.7,2.386-18.219,8.287-41.491,47.842-58.385,9.822-4.195,7.208-5.973.007-10.3s-19.362-5.408-32.839-7.116c-19.663-2.493-60.366-1.77-98.4,2.582a400.63,400.63,0,0,0-43.575,7.154c-8.745,2.019-12.313,7.723,2.361,8.813s25.816,9.806,35.787,27.176c7.3,12.721,11.09,27.6,13.459,39.75.556,2.855,1.03,5.56,1.45,8.026.233,1.407.449,2.724.653,3.963a224.233,224.233,0,0,1,3.029,40.981c-.015.6-.032,1.2-.051,1.808-.124,3.732-.357,7.541-.744,11.373-.407,4.028-2.035,2.333-2.14-.044s-.176.771-.747-7.714c-.1-1.48-.179-2.667-.264-3.615-.4-4.569-.953-4.071-4.521-5.59-17-7.243-38.278-14.627-45.451,5.59a32.916,32.916,0,0,0-1.02,3.432c-1.145,4.725-1.617,4.05-1.954.566a15.56,15.56,0,0,1,.183-4,20.725,20.725,0,0,1,3.062-7.87c11.651-17.508,39.142-3.4,41.712-2.409a21.556,21.556,0,0,0,4.435,1.706c2.833.731,2.946.593,3.2-1.942s-1.535-18.439-1.816-20.044.128-1.269-1.8-1.709c-13.678-3.134-21.163-5.862-33.73-4.644-8.336.807-6.312.363-9.094.755-2.85.4-10.624,3.392-12.614,4.613-4.86,2.983-4.334,5.82-7.319,17.789-1.589,6.374-2.6,9.049-8.584,8.617-5.944-.429-4.11,1.654-4.6,3.083a7.013,7.013,0,0,0-.224,2.055c-.013,1.981.284,5.048.651,8.831.289,2.986-1.537,6.175-2.508-1.264-.848-6.486-.182-4.248.114-7.567.043-.486.079-1.095.1-1.874.168-6.045-.381-5.238-6.173-6.686-15.271-3.818-20.381-5.561-34.718-10.952s-26.944-7.186-43.169-4.861c-6.683.957-3.175.937-9.553-.079-2.471-.392.5-.048-3.6-.906s-1.372,1.389-2.5,2.754S35.093,132,32.58,131.992s-2.344,1.735-.61,4.079,1.465,6.046-2.11,6.734c-3.945.76-4.43,1.65-2.042,4.845a2.5,2.5,0,0,1-.582,3.8,9.216,9.216,0,0,1-7.1,1.213c-4.776-.978-3.969.51-2.877,1.41a4.912,4.912,0,0,1,.615,6.344c-1.485,2.346-.844-.523.859,7.577.675,3.207,3.593,16.306,6.69,30.207,3.323,14.894,6.851,30.706,8.031,36.183,3.823,17.729,17.15,69.418,20.462,76.383,5.139,10.8.29,10.771-5.834,12.369-2.758.719-5.347-.738-9.585,2.186-8.408,5.8-.745,7.857,4.3,8.121s24.073,2.189,32.228,3.408,35.336,4.363,44.888,4.443c5.024.041,5.738,2.207,5.386-4.038-.739-13.041-.437-20.052.8-25.446s3.972-5.658,2.585.755-2.013,23.3,4.066,36.778c11.506,25.512,59.476,40.954,93.895,35.861A117.3,117.3,0,0,0,244.41,381.2c37.067-11.553,55.867-39.653,54.669-68.941-.619-15.126,2.776-8.934,3.435-4.728s.282,13.284-1.282,20.469c-1.38,6.336-3.652,6.381,6.029,5.193,5.217-.642,46.878-7.288,64.391-12.017,20.314-5.483,46.242-7.494,58.813-9.967S436.218,300.6,435.19,295.177ZM200.562,359.6c-23.84,2.811-47.4-10.2-47.773-29.029-.129-6.517,1.067-7.136,2.568-9.792,2.559-4.53,2.928-3.83,1.509,2.617-4.011,18.22,10.935,32.379,37.41,33.549,28.5,1.255,45.995-20.469,40.779-50.92-1.735-10.129-.908-11.969,2.593-1.758C244.791,325.1,236.562,355.355,200.562,359.6Z"/><path class="b" d="M25.06,255.292c-.436-5.8-.771-7.963,1.667-6.129,3.478,2.618,3.791.641,5.808.318.989-.158,1.56,2.485,2.84,8.579,1.857,8.828,7.283,27.387,9.762,37.23,4.693,18.635,10.092,22.507.892,24.782-10.613,2.621-11.6,3.025-14.2,6.4-3.347,4.343-4.422,6.206-4.921-1.533S26.745,281.753,26.3,272,25.193,257.04,25.06,255.292Z"/><path class="b" d="M21.038,212.48c.019-6.282-1.716-6.706.326-7,2.6-.377,1.732,1.025,2.716,4.7.543,2.023,2.178,7.888,2.851,11.275.98,4.93,3.78,14.391,4.393,19.418.35,2.865-1.776,1.114-3.718,1.8s-3.389,3.908-3.8-1.578C23.35,234.857,21.034,214.247,21.038,212.48Z"/><path class="b" d="M210.269,99.456c3.342-.468,3.006-2.678,3.982,3.507s1.132,7.8.815,9.717.575,3.335-3.487,1.593-30.781-5.306-40.765-2.078c-11.406,3.687-13.085,4.282-12.263,1.753,1.2-3.687.532-2.94,5.107-4.326a155.954,155.954,0,0,1,26.388-6.323C203.049,101.41,204.445,100.271,210.269,99.456Z"/><path class="b" d="M34.144,117.022c4.41-2.437,29.25-2.021,38.536-1.473,16.926,1,47.842-1.37,61.085-4.662s12.723-3.494,16.656-4.377,8.412-1.317,5.274,7.778-6.195,16.423-7.278,20.8.563,8.538-15.909,4.3c-36.19-9.3-50.323-20.366-74.5-17.146C45.6,123.9,45.96,124.919,42.854,123.965s-3.5-2.425-6.213-1.91-1.846,1.685-3.6-.907S29.918,119.357,34.144,117.022Z"/><path class="b" d="M404.025,116.1c8.039,2.612,10.151,3.663-1.066,7.136-8.807,2.725-32.346,10.671-39.74,12.39-10.195,2.369-22.656,10.686-27.172-5.655-4.834-17.491-4.983-23.535-13.8-18-6.867,4.308-7.8,2.264-7.887-3.631-.134-9.155-1.828-16.275,6.079-7.245,4.6,5.247,12.277,3.583,18.619,4.224S391.626,112.069,404.025,116.1Z"/><path class="b" d="M295.186,94.493c1.969-9.484,1.635-14.224,6.227-10.9s5.933,4.2,7.715,7.039,3.85,6.032-.337,4.3c-1.363-.564-8.659-.361-9.837-.428-2.271-.128.2.734,2.858.98.848.077,4.665.529,6.1.789,2.507.451,4,1.119,4.186,5.622.176,4.245,1.056,4.419-6.457,4.644-8.381.252-12.626,6.934-11.607-3.144A89.04,89.04,0,0,1,295.186,94.493Z"/><path class="b" d="M200.819,82.287c8.946-.993,7.609-3.124,9.721,5.714,2.055,8.6,2.55,8.167-2.218,9.508-5.782,1.626-25.163,4.7-31.151,6.409s-12.847,3.506-15.075,3.847-3.335.574-3.849-2.139-1.458-11.161-3.445-16.118-1.514-5.253,1.881-5.206,7.177.185,15.436-.113S195.6,82.866,200.819,82.287Z"/><path class="b" d="M16.573,137.875c-3.126,1.2-3.056,2-2.263,7.755.846,6.135,2.811,4.5,5.14,5.092,4.636,1.182,9.059-2.78,5.984-4.349-3.105-1.583-2.336-.778-4.275-1.343s-2.868-.642-1.379-2.568c.893-1.152.592-.371-1.005-2.6S17.662,137.456,16.573,137.875Z"/><path class="b" d="M20.786,139.226c1.065,1.277,1.758,2.593,2.951,2.6,1.443.012,9.286-.083,6.255-5.44s-2.415-3.664-3.938-5.648c-2.156-2.8-3.713-5.918-7.06-5.468s-3.159,3.7-2.247,6.622A23.992,23.992,0,0,0,20.786,139.226Z"/><path class="b" d="M33.474,124.37c.773.971,2.043,2.943.236,4.373s-4.343,2.493-7.889-1.056-4.278-8.5-.445-9.125S31.758,122.214,33.474,124.37Z"/><path class="b" d="M433.254,140.393c-5.052,4.885-15.218,2.353-7.786-3.893,4.277-3.594,6.485-5.651,9.213-3.4S435.177,138.532,433.254,140.393Z"/><path class="b" d="M427.9,131.743c-7.26,6.733-18.268,3.278-9.6-4.469,9.675-8.647,14.982-8.661,14.123-2C431.844,129.729,430.87,128.986,427.9,131.743Z"/><path class="b" d="M421.071,122.233c-11.393,8.136-12.255.09-7.59-3.159,6.706-4.668,9.014-6.775,11.366-3.235S422.4,121.285,421.071,122.233Z"/><path class="c" d="M23.815,201.6a2.263,2.263,0,0,1-2.24,2.165c-1.312.063-2.531-.195-2.707-1.371s.536-2.25,2.215-2.412S23.786,200.66,23.815,201.6Z"/><path class="c" d="M14.811,154.686c-1.232.245-2.778,1.149-2.21,3.1.383,1.321.946,1.353,2.078,1.367a1.967,1.967,0,0,0,2.084-2.461C16.535,154.958,16.043,154.443,14.811,154.686Z"/><path class="c" d="M29.609,248.447c4.467-.559,3.931-4.15.286-4.172C25.878,244.247,25.639,248.943,29.609,248.447Z"/><path class="a" d="M118.242,121.117a23.352,23.352,0,0,1-1.922,4.144c-1.931,3.389-1.371,5.281,1.779,4.1s5.388-6.2,2.973-4.307c-2.568,2.007-5.5,4.578-2.2-.666C122.792,118.165,120.046,117.05,118.242,121.117Z"/><path class="a" d="M357.31,127.782c-2.292-2.918-5.74-2.207-7.446-1.665-3.317,1.054-1.143,7.647.571,8.486,1.156.564,2.324.652,5.151,0S359.348,130.376,357.31,127.782Zm-.931,3.356c-.658,1.633-1.872,2.064-3.937,2.14-2.124.076-3.737-2.362-2.9-4.68.445-1.236,1.568-1.836,3.583-1.917C356.437,126.547,357.341,128.746,356.379,131.138Z"/><path class="a" d="M227.328,40.913c6.1-.591,9.728,1.147,15.87,4.365,3.44,1.8,3.247,2.483,5.912,2.693,4.3.336,3.347,3.482,2.834,4.623-.827,1.838-.08,1.766-.036,3.52.092,3.625,2.976,19.051-6.058,20.428-11.262,1.717-16.1-1.579-17.251-12.142s1.712-14.734,3.008-15.613,4.772-2.6,1.717-4.31c-2.268-1.274-1.316-.626-3.568-.534S224.466,41.19,227.328,40.913Z"/><path class="c" d="M243.074,49.183c5.316,2.647,7.434,1.3,7.855,9.789.527,10.622-.693,14.886-7.884,15.834s-12.4-3.571-13.078-10.538c-.655-6.762-.41-10.672,2.13-13.016C235.44,48.165,235.684,45.5,243.074,49.183Z"/><path class="a" d="M246.294,61.681a4.7,4.7,0,0,1-3.836,5.771c-1.63.033-4.849-.786-5.074-4.405s1.051-6,3.788-6.27S245.744,58.6,246.294,61.681Z"/><path class="c" d="M244.616,61.215c.2,2.115.165,3-1.316,3.268s-2.7-1.125-3.038-2.845c-.245-1.232,1.087-1.738,1.834-1.812C243.733,59.668,244.556,60.594,244.616,61.215Z"/><path class="a" d="M287.287,58.337c.567,9.74-2.932,15.1-11.044,15.637s-11.362-5.806-11.732-10.918.1-11.466,2.495-14.433c5.044-6.266,12.826-4.951,16.5.535C285.564,52.225,287.113,55.339,287.287,58.337Z"/><path class="c" d="M273.888,47.077c6.41-1.249,10.575,4.754,11.5,11.068,1.121,7.678-2.153,12.766-8.45,13.88-7.033,1.242-10.135-4.8-10.356-9.672S265.783,48.656,273.888,47.077Z"/><path class="a" d="M277.39,61.18c.6,2.167-1.6,4.174-3.62,4.117s-4.471-2.078-4.427-4.217.807-3.343,3.17-3.573A4.806,4.806,0,0,1,277.39,61.18Z"/><path class="c" d="M274.641,61.321a1.35,1.35,0,0,1-1.5,1.4c-1-.124-1.555-.3-1.714-.84-.282-.976-.032-1.629,1.2-1.873C273.488,59.837,274.681,60.438,274.641,61.321Z"/><path class="a" d="M275.649,27c2.292-.329,6.95.894,7.959,4.378.283.978-.22,2.91-1.03,2.989s-.75-.618-.81-1.24c-.193-1.991-2.788-3.5-5.208-3.2s-3.241,2.2-4.673,4.912-3.152,1.812-2.5-.512S271.623,27.579,275.649,27Z"/><path class="a" d="M266.765,81.142a.531.531,0,1,1-.475.578A.53.53,0,0,1,266.765,81.142Zm-6.576.1a.619.619,0,1,0,.557-.674A.619.619,0,0,0,260.189,81.243Zm-2.664,4.121a.575.575,0,1,0,.516-.627A.576.576,0,0,0,257.525,85.364Zm-9,1a.752.752,0,1,0,.675-.822A.75.75,0,0,0,248.528,86.362Zm2.924-3.267a.619.619,0,1,0,.556-.676A.62.62,0,0,0,251.452,83.1Zm-1.541-1.138a.575.575,0,1,0,.516-.628A.574.574,0,0,0,249.911,81.957Zm-11.635.971a.531.531,0,1,0,.476-.58A.532.532,0,0,0,238.276,82.928Zm5.652,3.376a.574.574,0,1,0,.515-.627A.573.573,0,0,0,243.928,86.3Zm29.686-3.378a.575.575,0,1,0,.517-.628A.577.577,0,0,0,273.614,82.926Zm-10.879,3.848a.618.618,0,1,0,.556-.676A.617.617,0,0,0,262.735,86.774Zm-6.45-2.546a.574.574,0,1,0,.515-.627A.574.574,0,0,0,256.285,84.228Zm-33.837,13.7a.575.575,0,1,0,.516-.628A.577.577,0,0,0,222.448,97.93Zm9.248,9.12a.53.53,0,1,0,.476-.58A.531.531,0,0,0,231.7,107.05Zm-3.29,3.111a.575.575,0,1,0,.516-.626A.573.573,0,0,0,228.406,110.161Zm8.377,11.528a.442.442,0,1,0,.4-.483A.441.441,0,0,0,236.783,121.689Zm1.428-1.833a.531.531,0,1,0,.477-.58A.53.53,0,0,0,238.211,119.856Zm.141,1.964a.486.486,0,1,0,.437-.532A.487.487,0,0,0,238.352,121.82Zm5.64-2.179a.663.663,0,1,0,.6-.724A.663.663,0,0,0,243.992,119.641Zm7.087,1.322a.486.486,0,1,0,.437-.53A.485.485,0,0,0,251.079,120.963Zm-5.01,3.5a.31.31,0,1,0,.279-.339A.311.311,0,0,0,246.069,124.463Zm-.873,2.156a.575.575,0,1,0,.516-.628A.575.575,0,0,0,245.2,126.619Zm5.582.589a.575.575,0,1,0,.517-.627A.576.576,0,0,0,250.778,127.208Zm4.428,4.188a.353.353,0,1,0,.317-.387A.351.351,0,0,0,255.206,131.4Zm1.553.54a.8.8,0,1,0,.717-.868A.8.8,0,0,0,256.759,131.936Zm1.013-13.443a.4.4,0,1,0,.358-.433A.4.4,0,0,0,257.772,118.493Zm3.6,4.519a.53.53,0,1,0,.475-.579A.531.531,0,0,0,261.374,123.012Zm-5.884.977a.574.574,0,1,0,.517-.627A.573.573,0,0,0,255.49,123.989Zm11.494-5.289a.53.53,0,1,0,.477-.58A.53.53,0,0,0,266.984,118.7Zm4.852-.469a.53.53,0,1,0,.476-.58A.528.528,0,0,0,271.836,118.231Zm10.776-6.225a.486.486,0,1,0,.437-.531A.486.486,0,0,0,282.612,112.006Zm-9.591,10.159a.574.574,0,1,0,.516-.628A.573.573,0,0,0,273.021,122.165Zm-.967,2.23a.752.752,0,1,0,.675-.822A.751.751,0,0,0,272.054,124.4Zm-5.752-.009a.663.663,0,1,0,.6-.725A.665.665,0,0,0,266.3,124.386Zm6.691,5a.487.487,0,1,0,.437-.53A.485.485,0,0,0,272.993,129.389Zm-5.456,2.57a.884.884,0,1,0,.793-.965A.883.883,0,0,0,267.537,131.959Zm13.96-13.315a.486.486,0,1,0,.437-.53A.484.484,0,0,0,281.5,118.644Zm-5.306-3.128a.839.839,0,1,0,.755-.916A.84.84,0,0,0,276.191,115.516Zm-6.334-29.4a.309.309,0,1,0,.278-.338A.311.311,0,0,0,269.857,86.115Zm4.623-5.942a.354.354,0,1,0,.318-.386A.354.354,0,0,0,274.48,80.173ZM231.7,81.649a.486.486,0,1,0,.436-.531A.484.484,0,0,0,231.7,81.649Zm24.311-.785a.4.4,0,1,0,.359-.435A.4.4,0,0,0,256.009,80.864ZM252.556,87.2a.353.353,0,1,0,.317-.385A.353.353,0,0,0,252.556,87.2Zm17.437-6.4a.442.442,0,1,0,.4-.482A.444.444,0,0,0,269.993,80.8Zm-8.245,53.859a.531.531,0,1,0,.476-.58A.53.53,0,0,0,261.748,134.655Zm1.5-4.541a.353.353,0,1,0,.318-.385A.354.354,0,0,0,263.244,130.114Z"/><path class="a" d="M290.025,69.751c-2.389.609-2.945,1.353-3.551,2.228C284.4,74.965,285,75.515,283.4,81.7c-3.109,11.979-19.159,9.641-33.812,10.056-3.944.111-1.328-.75-8.54-1.306s-11.355-4.427-13.254-5.875-3.773-2.649-4.933-5.55-1.827-5.553-4.123-6.257c-6.213-1.909-2.107,1.586-.493,2.685s3.047,4.226,3.986,6.144,2.539,3.745,6.4,6.413c3.9,2.7,2.5,5.661,2.237,8.825-.262,3.2,1.666,4.236,3.267,5.21s2.846.854,3.481,4.811,3.033,4.732,5.607,4.732c1.891.068,3.335-.574,5.382,1.111s11.254.793,12.551-.086.04-.883,2.238-.217,3.594.783,7.213.556,3.919-2.056,4.378-4.065c.618-2.7.345-2.922,4.414-3.693a4,4,0,0,0,3-4.058c-.266-2.749.233-2.785,2.44-4.632s1.494-4.3,1.5-6.55c0-.628-.328-1.49-.779-1.557-.509-.075-.576-.928-.672-1.756-.381-3.291.2-3.1.748-6.54,1.3-8.209,2.873-7.939,4.827-8.5S293.872,68.772,290.025,69.751Z"/><path class="c" d="M278.144,91a58.373,58.373,0,0,0-5.8,1.065,52.958,52.958,0,0,1-12.653,1.6c-8.906.109-11.021.314-15.011-.681s-6.85-.511-8.815-.9c-2.114-.422-3.44.144-3.569,1.412-.1,1,.155.3.42,3.037s1.534,2.866,2.766,2.621,1.208-.494,1.284-1c.359-2.4,1.075-1.863,1.369,3.762s1.51,6.508,4.656,6.58,2.6-1.633,2.585-3.138.432-7.2,1.356-.257,3.774,6.541,8.763,6.183,5.948-.827,5.072-7.273c-.724-5.326.766-5.973,1.81,1.834.912,6.819,3.167,5.47,7.149,5.085,5.722-.556,5.264-5.283,4.914-8.891s.775-1.081,1.056.526-.2,1.778,3.243,1.067,2.54-4.893,2.03-8.862S279.637,90.851,278.144,91Z"/><path class="c" d="M285.023,90.706c-.972-3.548-.731-3.369-2.007-2.569-1.421.891-1.943.691-1.89,3.825.08,2.128.313,3.236,2.38,2.533C285.4,93.85,285.52,92.517,285.023,90.706Z"/><path class="d" d="M86.911,253.193Q79.5,247.6,71.86,247.6q-9.852,0-20.095,5.595l-.945-1.5a11.78,11.78,0,0,0,1.378-.827q.749-.512,1.7-1.221,7.328-5.279,7.565-10.717v-.4a6.423,6.423,0,0,0-1.458-3.7,4.145,4.145,0,0,0-3.349-1.576,5.007,5.007,0,0,0-2.128.473l-.788-.947a5.971,5.971,0,0,1,4.335-2.363,6.385,6.385,0,0,1,3.861,1.339q-.237-7.092-5.832-7.092a5.789,5.789,0,0,0-3.388,1.1l-.946-.788q2.914-3.548,6.225-3.625a7.845,7.845,0,0,1,2.05.236,3.776,3.776,0,0,1,1.024.236q0-.472-.079-1.419t-.079-1.418a17.789,17.789,0,0,1,5.517-13l.709-.709a35.562,35.562,0,0,1-6.7,1.1,12.285,12.285,0,0,1-3.783-.867h-.236a.327.327,0,0,0-.237-.079,9.168,9.168,0,0,0-3.31-.709,3.142,3.142,0,0,0-2.482,1.142,4.03,4.03,0,0,0-.985,2.719,4.253,4.253,0,0,0,.158.946v.237a.321.321,0,0,1,.078.236l-1.418.473a11.64,11.64,0,0,1-.63-3.153,7.876,7.876,0,0,1,2.442-5.753,8.484,8.484,0,0,1,5.753-2.6,18.1,18.1,0,0,1,5.359,1.182,18.834,18.834,0,0,0,5.437,1.182,16.736,16.736,0,0,0,7.093-2.127l.709,1.1c-.106.106-.25.236-.434.394s-.407.342-.67.552a18.087,18.087,0,0,0-4.1,4.491,11.1,11.1,0,0,0-1.5,5.91q0,1.261.118,3.192t.434,4.453q.315,2.522.434,4.413t.118,3.23q0,9.458-6.62,17.967,10.8-7.329,10.8-19.464,0-1.1-.118-2.718t-.433-3.823a65.524,65.524,0,0,1-.473-6.54q0-6.619,4.1-10.009,3.859-3.15,10.559-3.151l.867,1.733q-8.353,1.026-8.353,7.723,0,2.364.473,6.935.314,2.286.433,4.018t.118,2.837A20.247,20.247,0,0,1,76.273,234.6a31.561,31.561,0,0,1-3.585,4.256,51.956,51.956,0,0,1-5.556,4.806,33.714,33.714,0,0,1,7.092-1.576Q75.09,242,76,241.963t1.773-.039a19.668,19.668,0,0,1,13.082,4.965l3.546-3.31L95.737,245Z"/><path class="d" d="M106.99,253.193q-2.049-2.127-3.9-3.7a26.131,26.131,0,0,0-3.586-2.6V246.1q2.521-.867,2.522-5.122V220.805l-2.758-2.364,6.54-5.122,6.541,5.358-2.679,2.443v24.35l2.206,1.971,2.364-1.971.946,1.34Zm1.419-55.635,6.54.236-6.54,8.905-1.892-.158Z"/><path class="d" d="M167.006,233.65l1.261.236a23.842,23.842,0,0,1-8.984,13.712,25.687,25.687,0,0,1-15.682,5.2,23.849,23.849,0,0,1-16.864-6.541,21.932,21.932,0,0,1-6.935-16.549q0-13.632,14.579-23.8c-.263,0-.539-.012-.827-.04a7.365,7.365,0,0,1-.828-.118,4.383,4.383,0,0,1-.866-.078h-.867q-10.089,0-14.5,10.086l-1.261-.551q1.891-7.8,6.974-12.017t12.963-4.217a42.231,42.231,0,0,1,4.965.355q2.915.356,6.856,1.143a72.174,72.174,0,0,0,11.82,1.418q5.752,0,8.2-4.334l1.261.393a11.013,11.013,0,0,1-4.059,8.038,13.84,13.84,0,0,1-8.865,2.837c-.315,0-.815-.025-1.5-.078s-1.182-.079-1.5-.079v36.8Q161.647,243.265,167.006,233.65ZM129.5,214.264a24.893,24.893,0,0,0-2.679,11.427,20.482,20.482,0,0,0,7.25,15.76q3.467-2.52,3.467-8.826V205.911A17.766,17.766,0,0,0,129.5,214.264Zm19.977-6.147q-.671-.156-1.458-.315t-1.458-.275a6.617,6.617,0,0,0-1.142-.119v19.78q0,7.251-4.256,11.111-.079.079-1.418,1.143t-4.019,3.27a20.407,20.407,0,0,0,11.269,3.468h.945q.474,0,.946-.04a7.78,7.78,0,0,0,.867-.118.883.883,0,0,1,.394-.079,1.48,1.48,0,0,0,.473-.079v-37.51Q150.141,208.276,149.472,208.117Z"/><path class="d" d="M203.365,253.193q-8.433-3.783-15.288-3.783a20.389,20.389,0,0,0-9.929,2.285,3.676,3.676,0,0,0-2.128,3.153,3.327,3.327,0,0,0,.552,1.812l.079.079a.224.224,0,0,0,.079.158l.394.709c.051.158.13.446.236.867q0,2.284-1.892,2.285-2.286,0-2.6-2.837v-.552a7.1,7.1,0,0,1,1.576-4.413,10.416,10.416,0,0,1,1.261-1.379q.865-.826,2.128-2.009,4.886-4.493,4.885-8.038,0-3.15-2.6-3.152-1.814,0-3.231,2.915l-1.182-.314q.787-6.935,7.013-7.093a9.95,9.95,0,0,0-1.26-5.279,4.852,4.852,0,0,0-4.334-2.6,6.052,6.052,0,0,0-5.2,2.837l-1.183-.552a9.175,9.175,0,0,1,4.019-5.358,14.512,14.512,0,0,1,6.777-1.34,24.142,24.142,0,0,1,1.576-8.983,16.757,16.757,0,0,1,5.753-6.935,17.265,17.265,0,0,1-4.649.709,19.287,19.287,0,0,1-3.862-.631q-1.262-.313-2.167-.473a9.32,9.32,0,0,0-1.536-.157q-4.02,0-5.438,4.728l-1.418-.473a14.1,14.1,0,0,1,3.231-6.777,9.053,9.053,0,0,1,6.619-3.152,19.471,19.471,0,0,1,5.28.867,21.171,21.171,0,0,0,5.28.946,21.675,21.675,0,0,0,8.983-2.523l.631,1.577a33.984,33.984,0,0,1-2.995,1.655,16.947,16.947,0,0,0-5.831,4.649,13,13,0,0,0-1.813,7.25v18.676a21.474,21.474,0,0,1-.945,7.329l-1.182,2.364q-.709,1.419-1.655,3.389c.157-.1.355-.224.591-.354a5.4,5.4,0,0,0,.748-.513,16.417,16.417,0,0,0,5.556-5.556,15.777,15.777,0,0,0,1.615-7.6V217.573q0-5.987.788-8.274a11.174,11.174,0,0,1,5.28-6.147,43.151,43.151,0,0,1,10.639-4.413l.552,1.577q-1.971.869-3.153,1.378t-1.654.75a14.062,14.062,0,0,0-4.02,3.231,7.12,7.12,0,0,0-1.024,3.546,4.864,4.864,0,0,0-.079.945v10.008l13.082-10.953q.551.4,1.418,1.063t1.97,1.537a18.227,18.227,0,0,1,5.91,8.353,37.785,37.785,0,0,1,1.1,10.323,40.481,40.481,0,0,1-.631,8.117,13.649,13.649,0,0,1-3.7,7.092,100.715,100.715,0,0,1-8.353,7.093q-.315.314-1.576,1.34a11.732,11.732,0,0,0-1.34,1.576,2.488,2.488,0,0,0-.551,1.339,1.19,1.19,0,0,0,1.1,1.34,3.6,3.6,0,0,0,1.734-.473h.236a.232.232,0,0,0,.158-.079,1.811,1.811,0,0,1,2.049,2.049q0,2.2-2.6,2.522a.886.886,0,0,1-.394.078h-.315a4.03,4.03,0,0,1-2.994-1.3,4.221,4.221,0,0,1-1.262-3.035q0-3.151,3.547-7.407,1.812-2.207,3.073-3.822a24.091,24.091,0,0,0,1.891-2.719,14.563,14.563,0,0,0,2.364-7.643,22.77,22.77,0,0,0-7.88-1.656q-8.906,0-18.2,9.3,1.1,0,2.759.118l3.861.277q2.285.157,3.941.236t2.757.078q2.758,0,5.359-3.625l1.419,1.025Zm5.989-27.109a15.714,15.714,0,0,0,8.038-1.97q-.631-5.042-7.093-9.219l-9.062,7.407v1.97A18.518,18.518,0,0,0,209.354,226.084Zm-7.722,8.748a.454.454,0,0,1,.314-.079,27.1,27.1,0,0,1,7.408-1.34,24.736,24.736,0,0,1,7.8,1.5v-.393a3.561,3.561,0,0,1,.08-.71v-6.461a3.3,3.3,0,0,1-.08-.631v-.473a18.689,18.689,0,0,1-7.959,1.577,22.963,22.963,0,0,1-7.959-1.577v8.59Z"/><path class="d" d="M243.53,253.193a38.067,38.067,0,0,0-12.136-4.886v-.866q2.442-1.184,2.6-5.36v-17.1q0-2.994-2.6-3l-.315-.866q4.728-2.049,8.511-3.979t6.777-3.743l9.614,12.293-14.264,11.82v7.25q4.255,2.129,6.856,3.546l5.6-3.94.788,1.1Zm6.226-24.823-8.039-10.323V234.91Z"/><path class="d" d="M331.079,213.161l-8.432,6.225,9.535,4.571v1.1q-1.418.869-1.418,3.388V244.13q-13.161,2.051-21.355,9.142Q302,248.7,294.988,248.7a26.076,26.076,0,0,0-7.565,1.025Q282.3,251.3,282.3,254.3a3.771,3.771,0,0,0,.67,1.813,3.734,3.734,0,0,1,.67,1.733q0,2.285-2.128,2.285-2.364,0-2.679-2.837v-.551a7.2,7.2,0,0,1,1.655-4.492,32.216,32.216,0,0,1,3.546-3.468q5.121-4.491,5.122-7.959a3.211,3.211,0,0,0-1.024-2.4,3.408,3.408,0,0,0-2.443-.985q-2.681,0-3.783,3.468l-1.418-.08q.314-7.327,8.511-8.038,0-7.406-5.753-7.407a4.8,4.8,0,0,0-4.65,3.232l-1.5-.4v-.157q1.26-7.407,7.014-7.723a24.316,24.316,0,0,1,4.334.473,18.454,18.454,0,0,1,2.6-9.3,22.51,22.51,0,0,1,7.17-6.462,25,25,0,0,1-7.329,1.34,13.221,13.221,0,0,1-4.018-.709,4.631,4.631,0,0,1-.788-.158l-1.576-.316c-.264-.051-.526-.09-.789-.118s-.525-.039-.788-.039q-3.781,0-4.334,4.729l-1.812-.079a14.489,14.489,0,0,1,2.916-7.487,8.708,8.708,0,0,1,7.092-3.152,31.414,31.414,0,0,1,6.383.946q2.2.552,3.783.787a17.852,17.852,0,0,0,2.521.238,19.431,19.431,0,0,0,8.432-2.128l1.262,1.733a13.316,13.316,0,0,1-1.892.945q-6.147,3-8.432,6.305-2.6,3.705-2.6,10.087V231.68a21.858,21.858,0,0,1-1.1,7.722,20.342,20.342,0,0,1-4.57,6.068,20.639,20.639,0,0,0,4.767-2.364,11.94,11.94,0,0,0,3.113-3.074,11.52,11.52,0,0,0,1.694-4.018,24.762,24.762,0,0,0,.513-5.359v-11.5q0-6.461,1.261-9.3,1.653-3.623,6.619-6.383a48.752,48.752,0,0,1,11.82-4.729v-.078ZM313.191,214.9v9.456L324.381,216l-9.693-13.239a8.987,8.987,0,0,0-5.043,3.7,12.814,12.814,0,0,0-1.182,6.226V227.03a20.851,20.851,0,0,1-1.418,8.432,15.166,15.166,0,0,1-5.753,6.226,18.741,18.741,0,0,1-1.931,1.221q-1.063.591-2.246,1.221a35.164,35.164,0,0,1,7.25-.945,23.326,23.326,0,0,1,7.093,1.182V214.9Zm4.886,15.445a11.135,11.135,0,0,0,4.886-1.024v-1.577l-6.935-3.467-2.837,2.128v3A13.046,13.046,0,0,0,318.077,230.34Zm-2.128,5.831a15.975,15.975,0,0,1,2.049-.157,16.684,16.684,0,0,1,4.965.709v-5.6A17.321,17.321,0,0,1,318,232a18.478,18.478,0,0,1-4.807-.788v5.437Q314.766,236.331,315.949,236.171Zm-1.931,9.063a7.548,7.548,0,0,0,.828.394l1.576.788a12.217,12.217,0,0,0,2.522-1.024h.078a34.35,34.35,0,0,1,3.941-1.419v-5.438a18.956,18.956,0,0,0-4.965-.788,16.4,16.4,0,0,0-4.807.867v6.226A7.625,7.625,0,0,1,314.018,245.234Z"/><path class="d" d="M347.542,253.193a20.165,20.165,0,0,0-9.535-5.516v-1.261q2.677-1.26,2.678-5.6V209.851a15.741,15.741,0,0,0-.551-5.043,6.558,6.558,0,0,0-3.31-3.625l.394-1.261a21.67,21.67,0,0,1,6.147,3.861,17.056,17.056,0,0,1,8.747-5.044l.395,1.183c-.159.157-.355.355-.592.591a7.338,7.338,0,0,1-.907.749,7.342,7.342,0,0,0-2.285,3.861,22.023,22.023,0,0,0-.314,4.571v34.751l3.861,2.68,1.654-1.261,1.1,1.261Z"/><path class="d" d="M379.874,253.193q-.317-.315-.749-.67c-.289-.237-.618-.538-.985-.907a11.76,11.76,0,0,1-2.916-6.776l-10.4,8.353q-6.069-4.649-6.067-9.772,0-6.46,6.3-13.476l1.1-1.26-6.778-12.136c0,.054.08.079.238.079h.393a.224.224,0,0,0,.158.079h.867a14.451,14.451,0,0,0,9.614-3.309l.315.157c.105.053.262.132.473.236q5.91,3.074,9.851,3.073a5.256,5.256,0,0,0,3.546-1.733l1.024.63a14.946,14.946,0,0,0-2.758,7.8c-.054.579-.079,1.182-.079,1.812v18.282q.078,2.838,1.97,3.074a6.156,6.156,0,0,0,1.891-.63l.158-.158.079-.079a.45.45,0,0,0,.315-.158l.788.946Zm-17.967-35.225,5.831,10.559,7.486,3.231v-9.377Zm5.122,11.82q-.237,0-.788,2.364a28.521,28.521,0,0,0-.945,6.3q0,4.1,4.885,8.59l5.043-4.177v-9.535l-4.255-1.812ZM367.5,202.6q0-5.437,7.013-8.984l.316-.157q7.327,2.287,7.328,8.275,0,2.364-2.6,5.752-2.6,3.468-4.727,3.467v-.079Q367.5,208.67,367.5,202.6Zm11.663,1.1a8.052,8.052,0,0,0-6.857-6.934A6.647,6.647,0,0,0,370.575,200a4.38,4.38,0,0,0-.157,1.025q0,3.939,5.437,6.146a4.077,4.077,0,0,0,1.339.473v-.079A4.642,4.642,0,0,0,379.165,203.7Z"/><path class="d" d="M400.432,238.22,393.1,234.2V220.253a20.214,20.214,0,0,0,5.831-2.6q1.023-.786,4.492-4.254a23.316,23.316,0,0,0,10.245,2.837,5.079,5.079,0,0,0,2.442-.552,2.174,2.174,0,0,0,1.419-1.971,2.5,2.5,0,0,0-.788-1.812.07.07,0,0,1-.079-.079,2.892,2.892,0,0,1-.867-2.127,2.02,2.02,0,0,1,2.286-2.286q2.835,0,2.837,3.31v.709q-.4,2.364-3.389,6.541l-6.619,9.141,8.037,4.649v15.367a29.517,29.517,0,0,0-10.874,6.068,17.233,17.233,0,0,0-8.748-2.916,12.53,12.53,0,0,0-7.88,2.916l-1.025-.867Zm5.99-4.807-8.354,11.821,1.971-.552c.261-.052.5-.1.709-.157s.445-.105.709-.158h.394a3.368,3.368,0,0,0,.63-.079h1.5a1.134,1.134,0,0,1,.474.079,15.7,15.7,0,0,1,6.54,2.285V235.935Zm-1.734-1.181,7.486-10.482a7.732,7.732,0,0,1-2.286.316h-.866a10.2,10.2,0,0,1-1.615-.119q-.75-.119-1.537-.275a18.391,18.391,0,0,1-5.043-2.128v10.481Z"/></svg>